<?xml version="1.0" standalone="no"?>
<!DOCTYPE svg PUBLIC "-//W3C//DTD SVG 20010904//EN"
 "http://www.w3.org/TR/2001/REC-SVG-20010904/DTD/svg10.dtd">
<svg version="1.0" xmlns="http://www.w3.org/2000/svg"
 width="512.000000pt" height="512.000000pt" viewBox="0 0 512.000000 512.000000"
 preserveAspectRatio="xMidYMid meet">

<g transform="translate(0.000000,512.000000) scale(0.100000,-0.100000)"
fill="#000000" stroke="none">
<path d="M254 4912 c-64 -22 -143 -80 -177 -129 -56 -81 -70 -130 -75 -255
l-4 -118 2402 0 2403 0 -5 113 c-4 83 -11 127 -27 170 -30 76 -111 164 -188
202 l-58 30 -2110 2 c-1991 2 -2113 1 -2161 -15z m1065 -217 c48 -24 56 -81
16 -120 l-24 -25 -465 0 c-255 0 -472 3 -481 6 -18 7 -45 55 -45 79 0 9 13 30
29 46 l29 29 457 0 c381 0 461 -2 484 -15z m2426 -10 c32 -31 32 -75 1 -111
-49 -58 -146 -20 -146 57 0 70 94 106 145 54z m354 -1 c56 -72 -18 -171 -97
-130 -40 21 -58 66 -42 106 16 38 35 49 82 50 28 0 41 -6 57 -26z m348 4 c15
-14 23 -33 23 -55 0 -47 -14 -69 -51 -82 -85 -30 -148 70 -86 137 27 29 82 30
114 0z"/>
<path d="M0 2706 c0 -1507 0 -1535 20 -1597 35 -111 113 -195 228 -244 46 -20
71 -20 1840 -23 l1792 -2 0 402 c0 247 4 417 10 440 16 58 69 119 130 151 49
25 63 28 125 25 39 -2 86 -12 105 -21 19 -9 150 -114 290 -232 l255 -215 3
1413 c1 776 0 1418 -3 1425 -3 9 -493 12 -2400 12 l-2395 0 0 -1534z m1410
964 c65 -36 96 -88 127 -212 l28 -108 995 -2 c984 -3 995 -3 1034 -24 22 -11
53 -37 70 -58 25 -30 31 -48 34 -99 3 -54 -10 -113 -98 -442 -61 -230 -111
-397 -126 -422 -35 -61 -91 -112 -154 -142 l-55 -26 -687 -3 -687 -3 19 -67
c12 -44 27 -74 45 -89 l26 -23 710 0 711 0 29 -29 c31 -31 36 -59 17 -94 -25
-48 -2 -46 -764 -47 -782 0 -764 -1 -838 55 -19 14 -46 49 -60 78 -17 32 -107
353 -232 822 -137 513 -211 774 -221 783 -11 7 -50 12 -104 12 -86 0 -88 1
-114 32 -33 39 -29 81 12 117 25 22 33 23 132 19 90 -3 113 -7 151 -28z m915
-1951 c56 -15 119 -83 134 -144 50 -199 -200 -337 -341 -188 -98 102 -64 263
67 324 46 21 83 23 140 8z m780 -8 c131 -59 162 -224 61 -326 -82 -82 -199
-82 -281 -1 -155 156 21 418 220 327z"/>
<path d="M1620 3163 c0 -15 57 -234 81 -310 l11 -33 142 0 c79 0 145 2 148 5
2 3 -6 78 -18 167 -13 90 -23 169 -24 176 0 9 -41 12 -170 12 -151 0 -170 -2
-170 -17z"/>
<path d="M2135 3148 c5 -30 45 -319 45 -325 0 -2 70 -3 155 -3 l155 0 0 180 0
180 -180 0 -181 0 6 -32z"/>
<path d="M2664 3167 c-2 -7 -3 -87 -2 -177 l3 -165 155 0 155 0 22 145 c11 80
21 160 22 178 l1 32 -175 0 c-134 0 -177 -3 -181 -13z"/>
<path d="M3195 3158 c-5 -23 -45 -316 -45 -330 0 -4 67 -8 150 -8 l149 0 10
38 c5 20 23 89 40 153 35 132 37 154 15 163 -9 3 -83 6 -165 6 -146 0 -149 0
-154 -22z"/>
<path d="M1800 2478 l47 -173 115 -3 115 -3 -18 133 c-10 73 -20 152 -24 176
l-6 42 -138 0 -138 0 47 -172z"/>
<path d="M2205 2623 c3 -16 12 -80 20 -143 8 -63 18 -130 21 -147 l5 -33 119
0 120 0 0 175 0 175 -145 0 -144 0 4 -27z"/>
<path d="M2660 2475 l0 -175 124 0 123 0 22 158 c11 87 21 166 21 175 0 15
-16 17 -145 17 l-145 0 0 -175z"/>
<path d="M3106 2511 c-9 -77 -20 -155 -23 -175 l-6 -36 67 0 c134 0 175 38
222 212 19 67 34 126 34 130 0 5 -62 8 -138 8 l-139 0 -17 -139z"/>
<path d="M2240 1545 c-16 -19 -6 -45 18 -45 28 0 43 20 31 42 -12 22 -32 23
-49 3z"/>
<path d="M3001 1542 c-7 -13 -6 -23 1 -30 26 -26 64 -2 47 30 -5 10 -16 18
-24 18 -8 0 -19 -8 -24 -18z"/>
<path d="M4075 1665 l-25 -24 0 -621 0 -621 25 -24 c17 -18 35 -25 62 -25 34
0 53 12 165 105 69 58 130 105 135 105 6 0 40 -66 77 -147 37 -82 77 -159 89
-171 76 -82 215 -65 261 31 29 63 21 102 -54 266 -38 83 -70 155 -70 160 0 4
73 21 163 37 143 25 165 31 190 55 31 31 35 72 12 106 -15 21 -864 741 -914
775 -38 26 -87 23 -116 -7z"/>
</g>
</svg>
