<?xml version="1.0" standalone="no"?>
<!DOCTYPE svg PUBLIC "-//W3C//DTD SVG 20010904//EN"
 "http://www.w3.org/TR/2001/REC-SVG-20010904/DTD/svg10.dtd">
<svg version="1.0" xmlns="http://www.w3.org/2000/svg"
 width="512.000000pt" height="511.000000pt" viewBox="0 0 512.000000 511.000000"
 preserveAspectRatio="xMidYMid meet">

<g transform="translate(0.000000,511.000000) scale(0.100000,-0.100000)"
fill="#000000" stroke="none">
<path d="M391 4769 c-131 -17 -264 -107 -331 -225 -61 -105 -60 -81 -60 -1201
l0 -1023 2560 0 2560 0 0 1023 c0 1120 1 1096 -60 1201 -70 123 -197 207 -340
226 -93 12 -4236 11 -4329 -1z m2874 -623 c59 -35 70 -61 73 -173 l4 -103 461
0 c443 0 463 -1 495 -20 45 -28 72 -76 72 -131 0 -40 -17 -75 -141 -295 -213
-376 -229 -403 -269 -427 -34 -22 -41 -22 -420 -22 -427 0 -423 -1 -472 67
l-23 33 -3 398 -3 397 -55 0 c-105 0 -164 52 -164 146 0 55 25 105 62 125 43
23 83 28 218 26 110 -2 141 -6 165 -21z m-871 -150 c43 -18 77 -67 84 -121 6
-60 -27 -118 -84 -145 -41 -20 -56 -20 -795 -18 l-754 3 -33 23 c-47 34 -65
75 -60 138 5 57 22 84 73 115 29 18 67 19 783 19 619 0 759 -2 786 -14z m17
-489 c91 -61 89 -181 -5 -251 -27 -21 -35 -21 -789 -21 -715 0 -764 1 -795 18
-47 26 -72 72 -72 134 0 45 5 58 32 89 18 20 41 40 52 44 12 5 363 9 782 9
l761 1 34 -23z m0 -480 c89 -59 89 -185 0 -244 l-34 -23 -766 0 c-734 0 -767
1 -795 19 -45 30 -66 70 -66 126 0 56 21 96 66 126 28 18 61 19 795 19 l766 0
34 -23z m939 -156 c91 -65 91 -188 1 -248 -119 -80 -273 48 -217 180 37 87
143 120 216 68z m400 7 c55 -28 83 -75 82 -134 -1 -81 -53 -135 -136 -141 -88
-7 -156 57 -156 145 0 72 29 113 97 138 52 18 62 17 113 -8z"/>
<path d="M0 1798 c0 -248 10 -316 60 -402 55 -97 142 -168 259 -210 54 -20 81
-21 833 -24 l778 -3 0 -265 0 -264 -229 0 c-220 0 -229 -1 -261 -22 -54 -37
-74 -72 -74 -128 0 -54 18 -87 68 -124 27 -21 32 -21 1126 -21 1094 0 1099 0
1126 21 50 37 68 70 68 124 0 56 -20 91 -74 128 -32 21 -41 22 -261 22 l-229
0 0 264 0 265 778 3 c752 3 779 4 833 24 117 42 204 113 259 210 50 86 60 154
60 402 l0 222 -2560 0 -2560 0 0 -222z m2687 62 c61 -27 85 -70 80 -142 -2
-44 -9 -64 -28 -84 -42 -45 -71 -54 -179 -54 -108 0 -137 9 -179 54 -19 20
-26 40 -28 84 -5 72 19 115 80 142 59 27 195 27 254 0z"/>
</g>
</svg>
