<?xml version="1.0" standalone="no"?>
<!DOCTYPE svg PUBLIC "-//W3C//DTD SVG 20010904//EN"
 "http://www.w3.org/TR/2001/REC-SVG-20010904/DTD/svg10.dtd">
<svg version="1.0" xmlns="http://www.w3.org/2000/svg"
 width="512.000000pt" height="512.000000pt" viewBox="0 0 512.000000 512.000000"
 preserveAspectRatio="xMidYMid meet">

<g transform="translate(0.000000,512.000000) scale(0.100000,-0.100000)"
fill="#000000" stroke="none">
<path d="M2188 5099 c-50 -26 -64 -56 -109 -232 -61 -235 -133 -343 -277 -414
-74 -37 -78 -38 -187 -37 -134 0 -175 14 -350 117 -233 138 -210 146 -517
-161 -306 -306 -298 -283 -165 -510 107 -183 121 -223 121 -357 1 -109 0 -113
-37 -187 -71 -144 -179 -216 -414 -277 -178 -46 -207 -59 -233 -111 -19 -37
-20 -58 -20 -370 0 -440 -14 -412 253 -481 235 -61 343 -133 414 -277 37 -74
38 -78 37 -187 0 -134 -14 -174 -121 -357 -133 -227 -141 -204 165 -510 307
-307 284 -299 517 -161 175 103 216 117 350 117 109 1 113 0 187 -37 144 -71
216 -179 277 -414 46 -178 59 -207 111 -233 37 -19 58 -20 370 -20 440 0 412
-14 481 253 61 235 133 343 277 414 74 37 78 38 187 37 134 0 174 -14 357
-121 227 -133 204 -141 510 165 306 306 298 283 165 510 -107 183 -121 223
-121 357 -1 109 0 113 37 187 71 144 179 216 414 277 178 46 207 59 233 111
19 37 20 58 20 370 0 440 14 412 -253 481 -235 61 -343 133 -414 277 -37 74
-38 78 -37 187 0 134 14 174 121 357 133 227 141 204 -165 510 -306 306 -283
298 -510 165 -183 -107 -223 -121 -357 -121 -109 -1 -113 0 -187 37 -144 71
-216 179 -277 414 -46 178 -59 207 -111 233 -37 19 -58 20 -372 20 -312 -1
-335 -2 -370 -21z m652 -1054 c605 -119 1070 -579 1202 -1188 32 -148 32 -446
0 -594 -65 -300 -203 -555 -417 -768 -218 -219 -483 -360 -790 -421 -127 -26
-426 -26 -545 -1 -322 68 -574 201 -795 421 -214 214 -352 467 -417 769 -32
148 -32 446 0 594 65 301 202 554 416 769 244 243 559 395 906 438 77 9 358
-3 440 -19z"/>
<path d="M2385 3760 c-469 -73 -856 -414 -989 -871 -121 -418 -1 -875 311
-1185 361 -358 896 -453 1362 -243 104 47 255 154 346 244 91 92 196 241 244
347 210 469 114 1004 -244 1363 -154 154 -350 264 -565 320 -85 22 -133 27
-255 30 -82 2 -177 0 -210 -5z m395 -469 c40 -21 80 -83 80 -124 0 -41 -297
-1225 -320 -1274 -22 -47 -78 -83 -130 -83 -74 0 -150 74 -150 145 0 42 309
1264 327 1291 38 58 129 79 193 45z m-700 -320 c19 -10 46 -33 58 -52 20 -28
23 -44 20 -92 -5 -68 -16 -81 -154 -188 -52 -41 -94 -77 -94 -81 0 -4 46 -44
103 -89 118 -95 133 -111 147 -159 20 -72 -21 -147 -95 -176 -38 -14 -52 -15
-84 -5 -52 15 -418 309 -448 359 -29 47 -29 97 0 144 22 37 382 329 429 347
37 15 81 12 118 -8z m1075 9 c50 -19 423 -321 439 -355 22 -46 20 -93 -7 -137
-27 -47 -392 -341 -442 -358 -62 -20 -140 13 -171 71 -21 41 -20 111 2 147 9
15 65 67 125 115 60 48 109 92 109 96 0 4 -44 42 -98 84 -135 106 -144 116
-150 180 -3 37 1 63 12 85 33 64 115 97 181 72z"/>
</g>
</svg>
